{"title":"G-Force.2009.BluRay.1080p.AC3-Lorinsion","uid":6099825,"size":3128403390,"categoryP":"video","categoryS":"hd___movies","magnet":"?xt=urn:btih:88c3b730c8e38e57a47b0bd5def9f5fc82abf27a&amp;dn=G-Force.2009.BluRay.1080p.AC3-Lorinsion&amp;tr=udp%3A%2F%2Ftracker.openbittorrent.com%3A80&amp;tr=udp%3A%2F%2Fopen.demonii.com%3A1337&amp;tr=udp%3A%2F%2Ftracker.coppersurfer.tk%3A6969&amp;tr=udp%3A%2F%2Fexodus.desync.com%3A6969","seeders":1,"leechers":0,"uploader":"Lorinsion","files":9,"time":1294876824,"description":"General\n\nComplete name                    : C:\\UPs\\G-Force.2009.BluRay.1080p-Lorinsion\\G-Force.mkv\nFormat                           : Matroska\nFile size                        : 2.82 GiB\nDuration                         : 1h 28mn\nOverall bit rate                 : 4 576 Kbps\nMovie name                       : G-Force2\nEncoded date                     : UTC 2010-10-22 02:50:17\nWriting application              : mkvmerge v4.3.0 ('Escape from the Island') built on Sep  5 2010 10:30:51\nWriting library                  : libebml v1.0.0 + libmatroska v1.0.0\n\nVideo\nID                               : 1\nFormat                           : AVC\nFormat/Info                      : Advanced Video Codec\nFormat profile                   : &lt;a class=&quot;__cf_email__&quot; href=&quot;/cdn-cgi/l/email-protection&quot; data-cfemail=&quot;440c2d232c0408706a74&quot;&gt;[email&amp;#160;protected]&lt;/a&gt;&lt;script cf-hash='f9e31' type=&quot;text/javascript&quot;&gt;\n/* &lt;![CDATA[ */!function(){try{var t=&quot;currentScript&quot;in document?document.currentScript:function(){for(var t=document.getElementsByTagName(&quot;script&quot;),e=t.length;e--;)if(t[e].getAttribute(&quot;cf-hash&quot;))return t[e]}();if(t&amp;&amp;t.previousSibling){var e,r,n,i,c=t.previousSibling,a=c.getAttribute(&quot;data-cfemail&quot;);if(a){for(e=&quot;&quot;,r=parseInt(a.substr(0,2),16),n=2;a.length-n;n+=2)i=parseInt(a.substr(n,2),16)^r,e+=String.fromCharCode(i);e=document.createTextNode(e),c.parentNode.replaceChild(e,c)}}}catch(u){}}();/* ]]&gt; */&lt;/script&gt;\nFormat settings, CABAC           : Yes\nFormat settings, ReFrames        : 3 frames\nFormat settings, GOP             : M=4, N=48\nCodec ID                         : V_MPEG4/ISO/AVC\nDuration                         : 1h 28mn\nBit rate mode                    : Variable\nBit rate                         : 4 101 Kbps\nMaximum bit rate                 : 25.0 Mbps\nWidth                            : 1 920 pixels\nHeight                           : 800 pixels\nDisplay aspect ratio             : 2.40:1\nFrame rate                       : 23.976 fps\nColor space                      : YUV\nChroma subsampling               : 4:2:0\nBit depth                        : 8 bits\nScan type                        : Progressive\nBits/(Pixel*Frame)               : 0.111\nStream size                      : 2.53 GiB (90%)\nWriting library                  : x264 core 105 r1732 2b04482\n\nAudio\nID                               : 2\nFormat                           : AC-3\nFormat/Info                      : Audio Coding 3\nMode extension                   : CM (complete main)\nCodec ID                         : A_AC3\nDuration                         : 1h 28mn\nBit rate mode                    : Constant\nBit rate                         : 384 Kbps\nChannel(s)                       : 6 channels\nChannel positions                : Front: L C R, Side: L R, LFE\nSampling rate                    : 48.0 KHz\nBit depth                        : 16 bits\nCompression mode                 : Lossy\nStream size                      : 242 MiB (8%)\nLanguage                         : English\n\n\nScreens:\n &lt;a href=&quot;\nhttp://img822.imageshack.us/i/vlcsnap2011011223h22m48.png/&quot; rel=&quot;nofollow&quot; target=&quot;_NEW&quot;&gt;\nhttp://img822.imageshack.us/i/vlcsnap2011011223h22m48.png/&lt;/a&gt;\n &lt;a href=&quot;\nhttp://img404.imageshack.us/i/vlcsnap2011011223h25m19.png/&quot; rel=&quot;nofollow&quot; target=&quot;_NEW&quot;&gt;\nhttp://img404.imageshack.us/i/vlcsnap2011011223h25m19.png/&lt;/a&gt;\n &lt;a href=&quot;\nhttp://img24.imageshack.us/i/vlcsnap2011011223h20m17.png/&quot; rel=&quot;nofollow&quot; target=&quot;_NEW&quot;&gt;\nhttp://img24.imageshack.us/i/vlcsnap2011011223h20m17.png/&lt;/a&gt;\n &lt;a href=&quot;\nhttp://img641.imageshack.us/i/vlcsnap2011011223h21m48.png/&quot; rel=&quot;nofollow&quot; target=&quot;_NEW&quot;&gt;\nhttp://img641.imageshack.us/i/vlcsnap2011011223h21m48.png/&lt;/a&gt;\n &lt;a href=&quot;\nhttp://img19.imageshack.us/i/vlcsnap2011011223h22m29.png/&quot; rel=&quot;nofollow&quot; target=&quot;_NEW&quot;&gt;\nhttp://img19.imageshack.us/i/vlcsnap2011011223h22m29.png/&lt;/a&gt;\n &lt;a href=&quot;\nhttp://img440.imageshack.us/i/vlcsnap2011011223h22m34.png/&quot; rel=&quot;nofollow&quot; target=&quot;_NEW&quot;&gt;\nhttp://img440.imageshack.us/i/vlcsnap2011011223h22m34.png/&lt;/a&gt;","torrent":{"xt":"urn:btih:88c3b730c8e38e57a47b0bd5def9f5fc82abf27a","amp;dn":"G-Force.2009.BluRay.1080p.AC3-Lorinsion","amp;tr":["udp%3A%2F%2Ftracker.openbittorrent.com%3A80","udp%3A%2F%2Fopen.demonii.com%3A1337","udp%3A%2F%2Ftracker.coppersurfer.tk%3A6969","udp%3A%2F%2Fexodus.desync.com%3A6969"],"infoHash":"88c3b730c8e38e57a47b0bd5def9f5fc82abf27a","infoHashBuffer":{"type":"Buffer","data":[136,195,183,48,200,227,142,87,164,123,11,213,222,249,245,252,130,171,242,122]},"announce":[],"urlList":[]}}